<svg xmlns="http://www.w3.org/2000/svg" width="512" height="512" viewBox="0 0 512 512">
  <!-- Background with rounded corners -->
  <rect width="512" height="512" rx="108" fill="#000000"/>
  
  <!-- Package icon (based on Lucide Package) -->
  <g transform="translate(96, 96) scale(13.33)" fill="none" stroke="white" stroke-width="2" stroke-linecap="round" stroke-linejoin="round">
    <!-- Top diagonal line -->
    <path d="m7.5 4.27 9 5.15"/>
    <!-- Main box shape -->
    <path d="M21 8a2 2 0 0 0-1-1.73l-7-4a2 2 0 0 0-2 0l-7 4A2 2 0 0 0 3 8v8a2 2 0 0 0 1 1.73l7 4a2 2 0 0 0 2 0l7-4A2 2 0 0 0 21 16Z"/>
    <!-- Horizontal line -->
    <path d="m3.3 7 8.7 5 8.7-5"/>
    <!-- Vertical line -->
    <path d="M12 22v-10"/>
  </g>
</svg>
